<svg xmlns="http://www.w3.org/2000/svg" viewBox="0 0 200 200" class="ui-layout-VerticalIcon hsCY-menu-item-icon hsCY-packages" role="presentation" aria-hidden="true" aria-label="Find pakkerejser-ikon" cleanup=""><path d="M94.3 179.8c-24-3.6-46.7-7-67.7 0c-2.6.9-5.5-.5-6.3-3.2c-.9-2.6.5-5.5 3.2-6.3c15.4-5.1 31-5.3 47.1-3.7l27-74.3c-4.2-.9-8.4-.9-12.1.1c-6 1.5-12.4-.6-16.2-5.8c-5.6-8-18.1-13.2-28.4-11.7c-8.2 1.2-14.2-7.7-10-15c18.4-31.7 57.2-42 90.3-32.3l1.8-4.8c.9-2.6 3.8-3.9 6.4-3c2.6.9 3.9 3.8 3 6.4l-1.8 4.9c31.6 13.8 54.6 46.7 48.5 82.9c-1.4 8.2-11.6 11.2-17.2 5c-7-7.7-19.8-11.8-29.3-9.3c-6 1.5-12.5-.6-16.2-5.9c-2.2-3.2-5.5-5.9-9.4-7.9l-26.2 72c10.5 1.4 21.1 3.2 31.9 4.6c-9-19.8 5.7-42.3 27.3-42.3c21.3 0 36 21.7 27.7 41.6c2-.4 4-.9 6-1.5c2.7-.7 5.4.8 6.1 3.5s-.8 5.4-3.5 6.1c-28 7.6-53.6 4.1-82-.1zm31.1-6.1c3.8.3 7.6.5 11.4.6c6.2-11.7 2.7-28.3-3.6-33.1c-13.3 4.8-17.7 21.7-7.8 32.5zm20.1-32.9c4.9 9.1 6.1 22.2 2.2 33.4c2.3-.1 4.6-.3 7-.5c10.1-11 5.2-28.8-9.2-32.9zm23.7-28.7c5.8-34.7-19.7-63.8-46.7-73.7c-27.1-9.8-65.3-3.9-83 26.4c12.5-1.8 27 3.6 35.4 12.7c2.2-9 5.8-17 10.7-23.9c1.6-2.3 4.7-2.8 7-1.2c2.3 1.6 2.8 4.7 1.2 7c-4.6 6.5-7.9 14.2-9.7 23c13.7-3.1 31 3.2 39.6 14.3c4.2-7.9 6.7-15.9 7.3-23.8c.2-2.8 2.7-4.8 5.4-4.5c2.8.2 4.8 2.7 4.5 5.4c-.7 8.4-3.2 16.8-7.2 25.2c12.3-1.6 27 3.6 35.5 13.1z"></path></svg>